# xmcd CD database file
#
# Track frame offsets:
#	150
#	45168
#	69403
#	96105
#	110538
#	126135
#	142998
#	162180
#	180341
#	200319
#	214960
#	233246
#	255573
#	274066
#	293838
#	310226
#
# Disc length: 4333 seconds
#
# Revision: 1
# Processed by: cddbd v1.5.2PL0 Copyright (c) Steve Scherf et al.
# Submitted via: CDex 1.81
#
DISCID=de10eb10
DTITLE=Severed Heads - ComMerz [CD2)
DYEAR=2007
DGENRE=Electronic
TTITLE0=Greater Reward
TTITLE1=All Saints Day
TTITLE2=Big Car Retread
TTITLE3=Pilot In Hell
TTITLE4=Twister
TTITLE5=Heart Of The Party
TTITLE6=Snow Remix
TTITLE7=Choose Evil
TTITLE8=Sevs In Space
TTITLE9=Pinagoal Hank
TTITLE10=Oblique Firefly Overlocker
TTITLE11=Kittenette
TTITLE12=Pilots Hate You
TTITLE13=We Choose Moon
TTITLE14=Bigfoot
TTITLE15=Snuck
EXTD=YEAR: 2007
EXTT0=
EXTT1=
EXTT2=
EXTT3=
EXTT4=
EXTT5=
EXTT6=
EXTT7=
EXTT8=
EXTT9=
EXTT10=
EXTT11=
EXTT12=
EXTT13=
EXTT14=
EXTT15=
PLAYORDER=
